HIERARCHY
ROOT Hips
{
	OFFSET 0.00000 0.00000 0.00000
	CHANNELS 6 Xposition Yposition Zposition Zrotation Yrotation Xrotation 
	JOINT LHipJoint
	{
		OFFSET 0 0 0
		CHANNELS 3 Zrotation Yrotation Xrotation
		JOINT LeftUpLeg
		{
			OFFSET 1.62964 -1.40469 0.78906
			CHANNELS 3 Zrotation Yrotation Xrotation
			JOINT LeftLeg
			{
				OFFSET 2.29640 -6.30932 0.00000
				CHANNELS 3 Zrotation Yrotation Xrotation
				JOINT LeftFoot
				{
					OFFSET 2.29451 -6.30412 0.00000
					CHANNELS 3 Zrotation Yrotation Xrotation
					JOINT LeftToeBase
					{
						OFFSET 0.03611 -0.09921 1.56387
						CHANNELS 3 Zrotation Yrotation Xrotation
						End Site
						{
							OFFSET 0.00000 -0.00000 0.80291
						}
					}
				}
			}
		}
	}
	JOINT RHipJoint
	{
		OFFSET 0 0 0
		CHANNELS 3 Zrotation Yrotation Xrotation
		JOINT RightUpLeg
		{
			OFFSET -1.73712 -1.40469 0.78906
			CHANNELS 3 Zrotation Yrotation Xrotation
			JOINT RightLeg
			{
				OFFSET -2.28137 -6.26801 0.00000
				CHANNELS 3 Zrotation Yrotation Xrotation
				JOINT RightFoot
				{
					OFFSET -2.28681 -6.28298 0.00000
					CHANNELS 3 Zrotation Yrotation Xrotation
					JOINT RightToeBase
					{
						OFFSET -0.15927 -0.43759 1.61103
						CHANNELS 3 Zrotation Yrotation Xrotation
						End Site
						{
							OFFSET -0.00000 -0.00000 0.84630
						}
					}
				}
			}
		}
	}
	JOINT LowerBack
	{
		OFFSET 0 0 0
		CHANNELS 3 Zrotation Yrotation Xrotation
		JOINT Spine
		{
			OFFSET -0.04227 2.04338 -0.00225
			CHANNELS 3 Zrotation Yrotation Xrotation
			JOINT Spine1
			{
				OFFSET -0.02148 2.04482 -0.04273
				CHANNELS 3 Zrotation Yrotation Xrotation
				JOINT Neck
				{
					OFFSET 0 0 0
					CHANNELS 3 Zrotation Yrotation Xrotation
					JOINT Neck1
					{
						OFFSET 0.09180 1.44629 0.19359
						CHANNELS 3 Zrotation Yrotation Xrotation
						JOINT Head
						{
							OFFSET 0.00887 1.40645 0.14750
							CHANNELS 3 Zrotation Yrotation Xrotation
							End Site
							{
								OFFSET -0.00669 1.50671 0.03707
							}
						}
					}
				}
				JOINT LeftShoulder
				{
					OFFSET 0 0 0
					CHANNELS 3 Zrotation Yrotation Xrotation
					JOINT LeftArm
					{
						OFFSET 2.17674 1.86763 -0.06520
						CHANNELS 3 Zrotation Yrotation Xrotation
						JOINT LeftForeArm
						{
							OFFSET 4.65776 -0.00000 0.00000
							CHANNELS 3 Zrotation Yrotation Xrotation
							JOINT LeftHand
							{
								OFFSET 3.55539 -0.00000 0.00000
								CHANNELS 3 Zrotation Yrotation Xrotation
								JOINT LeftFingerBase
								{
									OFFSET 0 0 0
									CHANNELS 3 Zrotation Yrotation Xrotation
									JOINT LeftHandIndex1
									{
										OFFSET 0.70726 -0.00000 0.00000
										CHANNELS 3 Zrotation Yrotation Xrotation
										End Site
										{
											OFFSET 0.57022 -0.00000 0.00000
										}
									}
								}
								JOINT LThumb
								{
									OFFSET 0 0 0
									CHANNELS 3 Zrotation Yrotation Xrotation
									End Site
									{
										OFFSET 0.57892 -0.00000 0.57892
									}
								}
							}
						}
					}
				}
				JOINT RightShoulder
				{
					OFFSET 0 0 0
					CHANNELS 3 Zrotation Yrotation Xrotation
					JOINT RightArm
					{
						OFFSET -2.80694 1.55459 -0.32496
						CHANNELS 3 Zrotation Yrotation Xrotation
						JOINT RightForeArm
						{
							OFFSET -4.71925 -0.00000 -0.00000
							CHANNELS 3 Zrotation Yrotation Xrotation
							JOINT RightHand
							{
								OFFSET -3.56990 -0.00000 0.00000
								CHANNELS 3 Zrotation Yrotation Xrotation
								JOINT RightFingerBase
								{
									OFFSET 0 0 0
									CHANNELS 3 Zrotation Yrotation Xrotation
									JOINT RightHandIndex1
									{
										OFFSET -0.50776 -0.00000 0.00000
										CHANNELS 3 Zrotation Yrotation Xrotation
										End Site
										{
											OFFSET -0.40937 -0.00000 0.00000
										}
									}
								}
								JOINT RThumb
								{
									OFFSET 0 0 0
									CHANNELS 3 Zrotation Yrotation Xrotation
									End Site
									{
										OFFSET -0.41562 -0.00000 0.41562
									}
								}
							}
						}
					}
				}
			}
		}
	}
}
MOTION
Frames: 15
Frame Time: .0083333
14.8054 16.3128 21.1728 162.5740 -17.3302 -158.6050 0.0000 0.0000 0.0000 14.1707 -17.0465 -56.4718 4.4188 12.6978 38.2473 -0.0882 8.4284 3.9452 2.5847 -9.9902 -28.9451 0.0000 0.0000 0.0000 0.5585 8.7050 -14.0156 -1.7748 -8.3803 23.8754 -2.9026 -8.2306 -35.8446 -0.4346 4.2303 -11.7256 -5.0938 0.3672 -20.4631 -3.1594 2.0466 2.1762 -0.0392 0.6284 13.9977 0.7738 4.2805 -2.0844 -1.2911 5.0214 19.9757 -0.2779 1.9840 6.4565 -0.0000 0.0000 0.0000 -84.1077 6.7432 12.7810 11.8213 -19.5361 -2.0421 -0.0000 -0.0000 7.6384 22.1238 -14.3716 -5.7621 -7.1250 0.0000 -0.0000 -3.6440 14.5407 2.6178 -0.0000 0.0000 0.0000 84.6185 0.1686 12.9647 -18.8773 29.2659 -4.9707 0.0000 -0.0000 -1.4810 -15.3988 -52.6152 12.3443 7.1250 -0.0000 -0.0000 63.8330 -76.9314 -51.2715
14.7372 16.2977 21.1462 162.5700 -17.2395 -158.5540 0.0000 0.0000 0.0000 14.4678 -17.1408 -56.0641 4.1934 12.4134 37.2105 -0.0828 8.6880 4.3322 2.5480 -9.9247 -28.7333 0.0000 0.0000 0.0000 0.2693 8.3682 -14.0563 -1.7833 -8.3992 23.9334 -2.9309 -7.9101 -35.8204 -0.4425 4.2683 -11.8327 -4.8746 0.3725 -20.5265 -3.1746 2.0069 2.1808 -0.1929 0.6279 14.0491 0.7487 4.4014 -1.9932 -1.3234 5.1996 19.8741 -0.2752 2.0699 6.4106 0.0000 -0.0000 0.0000 -84.0461 6.8125 12.7887 11.9050 -19.6621 -2.0702 -0.0000 -0.0000 7.5893 21.9983 -14.2815 -5.6913 -7.1250 0.0000 -0.0000 -3.7248 14.6508 2.6673 0.0000 -0.0000 0.0000 84.4476 0.1430 13.4992 -19.1014 29.5445 -5.0808 0.0000 -0.0000 -1.8311 -15.6861 -53.0675 12.6519 7.1250 -0.0000 -0.0000 65.6330 -77.1795 -53.1740
14.6654 16.2832 21.1173 162.5690 -17.2455 -158.6290 0.0000 0.0000 0.0000 14.7102 -17.3754 -55.4768 3.9537 12.0985 36.0812 -0.0829 9.0769 4.6950 2.4085 -9.6696 -27.9133 0.0000 0.0000 0.0000 0.1535 8.6895 -13.8686 -1.8572 -8.5621 24.4349 -3.0234 -8.0453 -36.3736 -0.4622 4.3610 -12.0945 -4.5624 0.3554 -20.7792 -3.1998 1.9464 2.3753 -0.4203 0.6212 14.4418 0.7351 4.4472 -1.8197 -1.4422 5.3073 19.4642 -0.3095 2.1300 6.2541 0.0000 0.0000 0.0000 -83.9412 6.6861 12.8440 12.0071 -19.8153 -2.1047 -0.0000 -0.0000 7.6480 22.0060 -15.1030 -6.0112 -7.1250 0.0000 -0.0000 -3.7639 13.7757 2.7654 0.0000 0.0000 0.0000 84.3733 0.4931 13.7870 -19.1662 29.6247 -5.1128 0.0000 -0.0000 -1.9628 -16.2323 -53.6736 13.2005 7.1250 -0.0000 -0.0000 68.1241 -77.5505 -55.8669
14.6107 16.2634 21.0731 162.4260 -16.9440 -158.6900 0.0000 0.0000 0.0000 14.6908 -17.2985 -54.6234 3.6653 11.7012 34.6830 -0.0870 9.5645 5.0540 2.5019 -9.8414 -28.4646 0.0000 0.0000 0.0000 -0.1777 9.0009 -13.6845 -1.9044 -8.6641 24.7501 -3.0733 -8.1328 -36.6762 -0.5008 4.5366 -12.5913 -4.9956 0.3387 -20.3823 -3.0983 1.9719 2.1573 -0.0490 0.6022 13.9305 0.6201 4.3871 -1.8398 -1.5233 5.1996 19.9966 -0.3210 2.0335 6.4250 -0.0000 -0.0000 0.0000 -84.0391 7.1380 12.8705 12.0273 -19.8456 -2.1115 -0.0000 -0.0000 7.6785 21.8448 -15.4884 -6.1103 -7.1250 0.0000 -0.0000 -3.8945 13.3854 2.8940 -0.0000 -0.0000 0.0000 84.1211 0.1753 13.9136 -19.1616 29.6190 -5.1105 0.0000 -0.0000 -1.8938 -16.3877 -53.6212 13.3206 7.1250 -0.0000 -0.0000 67.8496 -77.5994 -55.6637
14.5318 16.2523 21.0471 162.0820 -16.8685 -158.5760 0.0000 0.0000 0.0000 14.4652 -17.6702 -54.0940 3.4177 11.3424 33.4435 -0.0848 9.9527 5.4457 2.4962 -9.8311 -28.4314 0.0000 0.0000 0.0000 -0.8703 8.4811 -13.6762 -1.9297 -8.7181 24.9175 -3.1321 -7.7622 -36.7830 -0.5357 4.6897 -13.0257 -4.9407 0.2938 -20.3321 -3.2545 1.9099 2.1962 -0.2788 0.5822 13.9572 0.4897 4.4327 -2.0476 -1.4124 5.2544 20.1454 -0.2556 2.0545 6.5026 -0.0000 0.0000 0.0000 -83.9677 7.0413 12.6169 12.0154 -19.8278 -2.1075 -0.0000 -0.0000 7.7552 21.9632 -15.7050 -6.2298 -7.1250 0.0000 -0.0000 -3.8275 13.1411 2.8636 -0.0000 0.0000 0.0000 84.0939 0.4815 13.9555 -19.1012 29.5442 -5.0806 0.0000 -0.0000 -1.6414 -16.2016 -52.6027 12.9980 7.1250 -0.0000 -0.0000 63.4456 -77.2449 -51.2464
14.4610 16.2330 21.0136 162.0660 -16.7422 -158.5300 0.0000 0.0000 0.0000 14.5648 -17.6402 -53.6514 3.2073 11.0234 32.3587 -0.0789 10.1448 5.7269 2.3543 -9.5681 -27.5891 0.0000 0.0000 0.0000 -1.1347 8.5026 -13.5527 -1.9329 -8.7249 24.9385 -3.1492 -7.8221 -36.9006 -0.5875 4.9075 -13.6448 -4.7111 0.3705 -20.9475 -3.3768 2.0350 2.4500 -0.5115 0.6497 14.6323 0.7163 4.4165 -1.7522 -1.5574 5.2690 19.5668 -0.3466 2.0933 6.2772 0.0000 0.0000 0.0000 -83.6776 6.7412 12.8452 12.0877 -19.9360 -2.1321 -0.0000 -0.0000 7.7495 22.4123 -16.4315 -6.6541 -7.1250 0.0000 -0.0000 -3.5728 12.3125 2.7342 0.0000 0.0000 0.0000 84.2346 0.9044 13.8842 -19.1840 29.6466 -5.1215 0.0000 -0.0000 -1.4914 -16.2695 -51.9972 12.9510 7.1250 -0.0000 -0.0000 60.8652 -77.0680 -48.7375
14.3729 16.2175 20.9907 161.8210 -16.8722 -158.2930 0.0000 0.0000 0.0000 14.4101 -18.0226 -53.5420 3.0539 10.7818 31.5474 -0.0699 10.1360 5.8866 2.2616 -9.3909 -27.0259 0.0000 0.0000 0.0000 -1.6479 7.9912 -13.5189 -1.9322 -8.7235 24.9341 -3.1905 -7.7520 -37.0739 -0.6816 5.2787 -14.7051 -4.5543 0.2991 -21.0587 -3.4552 1.9113 2.4238 -0.7310 0.6085 14.6778 0.7822 4.4009 -1.6948 -1.7929 5.2718 19.6219 -0.4331 2.0768 6.2933 0.0000 0.0000 0.0000 -83.6180 6.7788 13.2035 12.1695 -20.0584 -2.1601 -0.0000 -0.0000 7.6859 22.6189 -15.1446 -6.2123 -7.1250 0.0000 -0.0000 -3.3524 13.6585 2.4703 0.0000 0.0000 0.0000 84.0958 0.8557 14.2839 -19.3833 29.8921 -5.2205 0.0000 -0.0000 -1.8853 -17.1931 -51.3774 13.5901 7.1250 -0.0000 -0.0000 57.8113 -77.2015 -46.1551
14.3112 16.1938 20.9443 162.0140 -16.8448 -158.5070 0.0000 0.0000 0.0000 14.6258 -17.9409 -52.9267 2.8938 10.5212 30.6816 -0.0490 9.9876 6.1492 2.3036 -9.4717 -27.2822 0.0000 0.0000 0.0000 -1.5243 8.2814 -13.0826 -1.9526 -8.7667 25.0683 -3.2513 -7.9704 -37.4917 -0.7485 5.5261 -15.4155 -4.6226 0.2922 -20.6899 -3.2916 1.8721 2.3309 -0.5151 0.5861 14.3400 0.6424 4.4993 -1.7473 -1.7027 5.3625 20.1405 -0.3735 2.0903 6.4629 -0.0000 -0.0000 0.0000 -83.5828 7.0957 13.8089 12.2309 -20.1500 -2.1812 -0.0000 -0.0000 7.4725 22.8145 -13.2562 -5.5097 -7.1250 0.0000 -0.0000 -3.1131 15.6575 2.1606 -0.0000 -0.0000 0.0000 83.8857 0.4435 14.7092 -19.6742 30.2478 -5.3663 0.0000 -0.0000 -2.4097 -15.3793 -54.5163 12.6244 7.1250 -0.0000 -0.0000 72.0685 -77.3877 -59.3926
14.2373 16.1756 20.9077 162.0090 -16.7719 -158.4130 0.0000 0.0000 0.0000 14.6343 -17.9402 -52.6640 2.7676 10.3090 29.9834 -0.0198 9.8132 6.5365 2.4376 -9.7236 -28.0862 0.0000 0.0000 0.0000 -1.7903 8.2148 -12.9515 -1.9510 -8.7633 25.0576 -3.2628 -8.0288 -37.5789 -0.7976 5.7006 -15.9180 -4.5182 0.3325 -20.6069 -3.3449 1.8890 2.2272 -0.6282 0.6064 14.1726 0.5781 4.6197 -1.7230 -1.4997 5.4825 20.3179 -0.2909 2.1502 6.5095 -0.0000 0.0000 0.0000 -83.3533 7.2931 14.2031 12.2904 -20.2387 -2.2017 -0.0000 -0.0000 7.2117 22.8325 -14.6085 -6.0615 -7.1250 0.0000 -0.0000 -3.1758 14.2063 2.3029 -0.0000 0.0000 0.0000 83.8958 0.2288 14.9391 -19.9245 30.5513 -5.4929 0.0000 -0.0000 -2.5730 -16.0751 -53.5788 13.0550 7.1250 -0.0000 -0.0000 67.7426 -77.4662 -55.4231
14.1596 16.1581 20.8708 161.9350 -16.7099 -158.3300 0.0000 0.0000 0.0000 14.5054 -17.9862 -52.3931 2.6486 10.1032 29.3116 -0.0167 9.8402 6.6117 2.3565 -9.5722 -27.6022 0.0000 0.0000 0.0000 -2.1005 8.2403 -12.6540 -1.9233 -8.7045 24.8754 -3.2294 -8.3714 -37.5906 -0.8951 6.0300 -16.8714 -4.4528 0.2938 -21.1576 -3.3713 1.8874 2.5108 -0.7015 0.6021 14.8404 0.6580 4.5306 -1.5833 -1.7277 5.4354 19.6910 -0.3846 2.1468 6.2931 0.0000 -0.0000 0.0000 -83.2893 6.8122 13.9117 12.2968 -20.2482 -2.2039 -0.0000 -0.0000 7.4493 22.8432 -13.8969 -5.7771 -7.1250 0.0000 -0.0000 -3.1277 14.9674 2.2171 0.0000 -0.0000 0.0000 83.8276 0.7671 15.0662 -19.9843 30.6235 -5.5234 0.0000 -0.0000 -2.6336 -15.5976 -54.6915 12.8334 7.1250 -0.0000 -0.0000 72.8260 -77.5003 -60.2328
14.0715 16.1418 20.8477 162.0880 -16.8867 -158.4520 0.0000 0.0000 0.0000 14.5185 -18.1542 -52.1717 2.5635 9.9525 28.8231 -0.0084 9.7508 6.6914 2.3047 -9.4738 -27.2888 0.0000 0.0000 0.0000 -2.1159 7.8790 -12.3376 -1.9236 -8.7052 24.8774 -3.2690 -8.3397 -37.7709 -1.0257 6.4423 -18.0734 -4.0692 0.2254 -20.9898 -3.2868 1.6900 2.5965 -0.8888 0.5459 14.8530 0.6106 4.4295 -1.5365 -1.8959 5.3479 19.3663 -0.4374 2.1031 6.1837 0.0000 -0.0000 0.0000 -83.3163 6.7247 13.7358 12.3374 -20.3087 -2.2180 -0.0000 -0.0000 7.6442 23.0273 -14.0784 -5.9028 -7.1250 0.0000 -0.0000 -3.0122 14.7519 2.1489 0.0000 -0.0000 0.0000 83.6278 1.0209 15.2010 -20.0126 30.6575 -5.5378 0.0000 -0.0000 -2.3658 -16.0084 -52.9719 12.9009 7.1250 -0.0000 -0.0000 65.1061 -77.2796 -52.7963
13.9867 16.1224 20.8209 162.2330 -16.9283 -158.4510 0.0000 0.0000 0.0000 14.5833 -18.2228 -52.0169 2.4969 9.8322 28.4352 -0.0085 9.6728 6.6337 1.9552 -8.7721 -25.0849 0.0000 0.0000 0.0000 -2.2303 7.6355 -12.2936 -1.9613 -8.7850 25.1252 -3.3695 -8.0044 -38.0943 -1.0443 6.4988 -18.2387 -3.8614 0.2340 -20.8322 -3.2061 1.6345 2.6044 -0.9319 0.5386 14.7712 0.5070 4.3408 -1.5603 -1.9591 5.2521 19.2620 -0.4457 2.0495 6.1520 -0.0000 -0.0000 0.0000 -83.2433 6.6067 13.9285 12.3091 -20.2667 -2.2082 -0.0000 -0.0000 7.3720 22.8709 -13.5718 -5.6530 -7.1250 0.0000 -0.0000 -3.0909 15.3127 2.1681 -0.0000 -0.0000 0.0000 83.4300 1.1928 15.2848 -20.0479 30.7000 -5.5558 0.0000 -0.0000 -2.1937 -15.6810 -52.2686 12.5180 7.1250 -0.0000 -0.0000 62.2706 -76.9292 -49.8570
13.8985 16.1061 20.7887 161.8120 -16.7835 -158.0420 0.0000 0.0000 0.0000 14.1229 -18.4884 -51.9777 2.4176 9.6865 27.9675 -0.0299 9.8249 6.3665 1.3828 -7.4406 -21.0275 0.0000 0.0000 0.0000 -3.1002 7.3536 -12.4232 -1.9717 -8.8069 25.1930 -3.4145 -7.8247 -38.2242 -1.0506 6.5178 -18.2944 -4.1682 0.2326 -21.0461 -3.3564 1.7336 2.5954 -0.8986 0.5583 14.8849 0.6295 4.2256 -1.6037 -2.1041 5.1035 19.3494 -0.5194 1.9710 6.1923 0.0000 0.0000 0.0000 -83.0682 6.4548 14.1980 12.3367 -20.3077 -2.2178 -0.0000 -0.0000 7.0327 22.4645 -13.1758 -5.3842 -7.1250 0.0000 -0.0000 -3.3499 15.7807 2.3166 0.0000 0.0000 0.0000 83.3345 1.3259 15.4238 -20.1287 30.7971 -5.5971 0.0000 -0.0000 -2.4018 -16.0172 -52.8136 12.8821 7.1250 -0.0000 -0.0000 64.4211 -77.2365 -52.1254
13.8123 16.0796 20.7505 162.2300 -17.0427 -158.3220 0.0000 0.0000 0.0000 14.3266 -18.4626 -51.6933 2.3409 9.5427 27.5083 0.0043 9.6648 6.8489 1.4219 -7.5408 -21.3277 0.0000 0.0000 0.0000 -2.7473 7.2208 -11.8318 -1.9522 -8.7658 25.0653 -3.4499 -7.8668 -38.4183 -1.0584 6.5411 -18.3629 -3.6808 0.2582 -20.6235 -3.2461 1.6123 2.5894 -1.0867 0.5481 14.6351 0.6490 4.1721 -1.6845 -2.0693 5.0061 19.6013 -0.5155 1.9151 6.2844 -0.0000 -0.0000 0.0000 -82.9650 6.6221 14.2376 12.4255 -20.4396 -2.2487 -0.0000 -0.0000 6.9024 22.0609 -13.4456 -5.3833 -7.1250 0.0000 -0.0000 -3.6404 15.5348 2.5376 -0.0000 -0.0000 0.0000 83.2236 1.2823 15.6689 -20.1640 30.8394 -5.6152 0.0000 -0.0000 -2.7866 -15.8971 -54.4079 13.0396 7.1250 -0.0000 -0.0000 71.5024 -77.5693 -59.0534
13.7367 16.0553 20.7020 162.0730 -16.8924 -158.2290 0.0000 0.0000 0.0000 13.8646 -18.2679 -51.4959 2.2661 9.3997 27.0539 0.0606 9.3235 7.5694 1.7874 -8.4084 -23.9616 0.0000 0.0000 0.0000 -3.1781 7.3866 -11.6860 -1.9849 -8.8346 25.2792 -3.5176 -7.9853 -38.8052 -1.0959 6.6523 -18.6894 -4.1785 0.1874 -20.2744 -3.1643 1.5951 2.4146 -0.7116 0.4989 14.2050 0.4540 4.1952 -1.8102 -1.9802 5.0074 20.0542 -0.4518 1.8846 6.4433 -0.0000 0.0000 0.0000 -82.9903 6.9542 14.3014 12.4506 -20.4769 -2.2574 -0.0000 -0.0000 6.6256 21.9480 -13.6893 -5.4476 -7.1250 0.0000 -0.0000 -3.7296 15.2870 2.6199 -0.0000 0.0000 0.0000 82.9680 1.1179 15.9151 -20.1254 30.7932 -5.5954 0.0000 -0.0000 -3.3990 -15.3737 -55.1699 12.7182 7.1250 -0.0000 -0.0000 75.0120 -77.4798 -62.2978
